<mxfile host="65bd71144e" modified="2021-01-12T04:34:02.316Z" agent="5.0 (Windows NT 10.0; Win64; x64) AppleWebKit/537.36 (KHTML, like Gecko) Code/1.52.1 Chrome/83.0.4103.122 Electron/9.3.5 Safari/537.36" etag="qj7QuMosx912OtvW2zzW" version="13.10.0" type="embed">
    <diagram id="foMfRqhruvX1AsDXUJWu" name="Page-1">
        <mxGraphModel dx="1650" dy="1961" grid="1" gridSize="10" guides="1" tooltips="1" connect="1" arrows="1" fold="1" page="0" pageScale="1" pageWidth="827" pageHeight="1169" background="#F2F2F2" math="0" shadow="1">
            <root>
                <mxCell id="0"/>
                <mxCell id="1" parent="0"/>
                <mxCell id="2" style="edgeStyle=orthogonalEdgeStyle;orthogonalLoop=1;jettySize=auto;html=1;fontSize=14;exitX=0.5;exitY=1;exitDx=0;exitDy=0;strokeColor=#006658;fontColor=#5C5C5C;" parent="1" source="12" target="35" edge="1">
                    <mxGeometry relative="1" as="geometry">
                        <Array as="points">
                            <mxPoint x="702" y="240"/>
                            <mxPoint x="910" y="240"/>
                        </Array>
                    </mxGeometry>
                </mxCell>
                <mxCell id="3" value="" style="ellipse;html=1;shape=endState;fillColor=#21C0A5;strokeColor=#006658;fontColor=#5C5C5C;rounded=1;" parent="1" vertex="1">
                    <mxGeometry x="920" y="1344" width="30" height="30" as="geometry"/>
                </mxCell>
                <mxCell id="4" style="orthogonalLoop=1;jettySize=auto;html=1;strokeColor=#006658;fontColor=#5C5C5C;" parent="1" source="5" target="16" edge="1">
                    <mxGeometry relative="1" as="geometry">
                        <mxPoint x="98" y="-499" as="targetPoint"/>
                    </mxGeometry>
                </mxCell>
                <mxCell id="5" value="" style="ellipse;shape=doubleEllipse;html=1;dashed=0;whitespace=wrap;aspect=fixed;fillColor=#21C0A5;strokeColor=#006658;fontColor=#5C5C5C;rounded=1;" parent="1" vertex="1">
                    <mxGeometry x="867" y="-706" width="30" height="30" as="geometry"/>
                </mxCell>
                <mxCell id="6" value="" style="edgeStyle=orthogonalEdgeStyle;orthogonalLoop=1;jettySize=auto;html=1;entryX=0.5;entryY=0;entryDx=0;entryDy=0;strokeColor=#006658;fontColor=#5C5C5C;" parent="1" source="8" target="11" edge="1">
                    <mxGeometry relative="1" as="geometry"/>
                </mxCell>
                <mxCell id="7" style="edgeStyle=orthogonalEdgeStyle;orthogonalLoop=1;jettySize=auto;html=1;strokeColor=#006658;fontColor=#5C5C5C;" parent="1" edge="1">
                    <mxGeometry relative="1" as="geometry">
                        <mxPoint x="580.0000000000002" y="-160.00000000000023" as="targetPoint"/>
                        <mxPoint x="580" y="-160" as="sourcePoint"/>
                    </mxGeometry>
                </mxCell>
                <mxCell id="8" value="&lt;font color=&quot;#ffffff&quot;&gt;search for doc&lt;/font&gt;" style="whiteSpace=wrap;html=1;shadow=0;glass=0;fontSize=14;fillColor=#21C0A5;strokeColor=#006658;fontColor=#5C5C5C;rounded=1;" parent="1" vertex="1">
                    <mxGeometry x="480" y="-117" width="120" height="60" as="geometry"/>
                </mxCell>
                <mxCell id="9" style="edgeStyle=orthogonalEdgeStyle;orthogonalLoop=1;jettySize=auto;html=1;entryX=0.5;entryY=0;entryDx=0;entryDy=0;strokeColor=#006658;fontColor=#5C5C5C;" parent="1" target="19" edge="1">
                    <mxGeometry relative="1" as="geometry">
                        <mxPoint x="530" y="70" as="sourcePoint"/>
                    </mxGeometry>
                </mxCell>
                <mxCell id="10" style="edgeStyle=orthogonalEdgeStyle;orthogonalLoop=1;jettySize=auto;html=1;strokeColor=#006658;fontColor=#5C5C5C;" parent="1" target="12" edge="1">
                    <mxGeometry relative="1" as="geometry">
                        <mxPoint x="560" y="70" as="sourcePoint"/>
                    </mxGeometry>
                </mxCell>
                <mxCell id="11" value="" style="rhombus;whiteSpace=wrap;html=1;shadow=0;glass=0;fillColor=#21C0A5;strokeColor=#006658;fontColor=#5C5C5C;rounded=1;" parent="1" vertex="1">
                    <mxGeometry x="520" y="50" width="40" height="40" as="geometry"/>
                </mxCell>
                <mxCell id="12" value="&lt;font color=&quot;#ffffff&quot;&gt;invite to report&amp;nbsp;&lt;br style=&quot;font-size: 14px&quot;&gt;loss&lt;/font&gt;" style="whiteSpace=wrap;html=1;shadow=0;glass=0;fontSize=14;fillColor=#21C0A5;strokeColor=#006658;fontColor=#5C5C5C;rounded=1;" parent="1" vertex="1">
                    <mxGeometry x="642" y="130" width="120" height="60" as="geometry"/>
                </mxCell>
                <mxCell id="13" style="edgeStyle=orthogonalEdgeStyle;orthogonalLoop=1;jettySize=auto;html=1;strokeColor=#006658;fontColor=#5C5C5C;" parent="1" source="16" target="87" edge="1">
                    <mxGeometry relative="1" as="geometry">
                        <Array as="points">
                            <mxPoint x="810" y="-354"/>
                            <mxPoint x="534" y="-354"/>
                        </Array>
                    </mxGeometry>
                </mxCell>
                <mxCell id="14" value="" style="edgeStyle=orthogonalEdgeStyle;orthogonalLoop=1;jettySize=auto;html=1;strokeColor=#006658;fontColor=#5C5C5C;" parent="1" source="16" target="85" edge="1">
                    <mxGeometry relative="1" as="geometry">
                        <mxPoint x="-410" y="-247" as="sourcePoint"/>
                        <mxPoint x="1241" y="248" as="targetPoint"/>
                        <Array as="points">
                            <mxPoint x="1008" y="-142"/>
                            <mxPoint x="1221" y="-142"/>
                        </Array>
                    </mxGeometry>
                </mxCell>
                <mxCell id="15" style="orthogonalLoop=1;jettySize=auto;html=1;entryX=0.5;entryY=0;entryDx=0;entryDy=0;strokeColor=#006658;fontColor=#5C5C5C;" parent="1" source="16" target="22" edge="1">
                    <mxGeometry relative="1" as="geometry">
                        <mxPoint x="943.5999999999995" y="-384.4000000000001" as="targetPoint"/>
                    </mxGeometry>
                </mxCell>
                <mxCell id="16" value="" style="line;strokeWidth=9;html=1;perimeter=backbonePerimeter;points=[];outlineConnect=0;shadow=0;glass=0;rotation=0;spacing=9;fontSize=18;fillColor=#21C0A5;strokeColor=#006658;fontColor=#5C5C5C;rounded=1;" parent="1" vertex="1">
                    <mxGeometry x="783" y="-550" width="268" height="10" as="geometry"/>
                </mxCell>
                <mxCell id="17" style="edgeStyle=orthogonalEdgeStyle;orthogonalLoop=1;jettySize=auto;html=1;exitX=0.921;exitY=0.486;exitDx=0;exitDy=0;exitPerimeter=0;strokeColor=#006658;fontColor=#5C5C5C;" parent="1" source="35" target="85" edge="1">
                    <mxGeometry relative="1" as="geometry">
                        <mxPoint x="620" y="136" as="sourcePoint"/>
                        <mxPoint x="1201" y="240" as="targetPoint"/>
                        <Array as="points">
                            <mxPoint x="1206" y="239"/>
                        </Array>
                    </mxGeometry>
                </mxCell>
                <mxCell id="18" style="edgeStyle=orthogonalEdgeStyle;orthogonalLoop=1;jettySize=auto;html=1;entryX=0.5;entryY=0;entryDx=0;entryDy=0;fontSize=14;strokeColor=#006658;fontColor=#5C5C5C;" parent="1" source="19" target="40" edge="1">
                    <mxGeometry relative="1" as="geometry"/>
                </mxCell>
                <mxCell id="19" value="&lt;font color=&quot;#ffffff&quot;&gt;show finder infos&lt;br&gt;&amp;amp; invite to send him a msg&lt;/font&gt;" style="whiteSpace=wrap;html=1;shadow=0;glass=0;fontSize=14;fillColor=#21C0A5;strokeColor=#006658;fontColor=#5C5C5C;rounded=1;" parent="1" vertex="1">
                    <mxGeometry x="362" y="130" width="120" height="60" as="geometry"/>
                </mxCell>
                <mxCell id="20" style="edgeStyle=orthogonalEdgeStyle;orthogonalLoop=1;jettySize=auto;html=1;strokeColor=#006658;fontColor=#5C5C5C;" parent="1" source="46" target="87" edge="1">
                    <mxGeometry relative="1" as="geometry">
                        <mxPoint x="890" y="-150" as="sourcePoint"/>
                        <mxPoint x="560" y="-157" as="targetPoint"/>
                        <Array as="points">
                            <mxPoint x="900" y="-207"/>
                            <mxPoint x="560" y="-207"/>
                        </Array>
                    </mxGeometry>
                </mxCell>
                <mxCell id="21" style="edgeStyle=elbowEdgeStyle;orthogonalLoop=1;jettySize=auto;html=1;entryX=0.483;entryY=0;entryDx=0;entryDy=0;entryPerimeter=0;fontSize=18;strokeColor=#006658;fontColor=#5C5C5C;" parent="1" source="22" target="46" edge="1">
                    <mxGeometry relative="1" as="geometry"/>
                </mxCell>
                <mxCell id="22" value="&lt;font color=&quot;#ffffff&quot;&gt;sign in&lt;/font&gt;" style="whiteSpace=wrap;html=1;shadow=0;glass=0;fontSize=14;fillColor=#21C0A5;strokeColor=#006658;fontColor=#5C5C5C;rounded=1;" parent="1" vertex="1">
                    <mxGeometry x="875" y="-320" width="120" height="60" as="geometry"/>
                </mxCell>
                <mxCell id="23" value="" style="rhombus;whiteSpace=wrap;html=1;shadow=0;glass=0;fillColor=#21C0A5;strokeColor=#006658;fontColor=#5C5C5C;rounded=1;" parent="1" vertex="1">
                    <mxGeometry x="1195.5" y="487.5" width="40" height="40" as="geometry"/>
                </mxCell>
                <mxCell id="24" style="orthogonalLoop=1;jettySize=auto;html=1;exitX=0.096;exitY=0.496;exitDx=0;exitDy=0;exitPerimeter=0;edgeStyle=elbowEdgeStyle;elbow=vertical;entryX=0.5;entryY=0;entryDx=0;entryDy=0;strokeColor=#006658;fontColor=#5C5C5C;" parent="1" source="23" target="72" edge="1">
                    <mxGeometry relative="1" as="geometry">
                        <mxPoint x="1200.8400000000001" y="262.8399999999999" as="sourcePoint"/>
                        <mxPoint x="1071" y="704" as="targetPoint"/>
                        <Array as="points">
                            <mxPoint x="1094" y="507"/>
                            <mxPoint x="1000" y="576"/>
                            <mxPoint x="1124" y="507"/>
                        </Array>
                    </mxGeometry>
                </mxCell>
                <mxCell id="25" value="exist?" style="text;html=1;align=center;verticalAlign=middle;resizable=0;points=[];autosize=1;fontSize=16;fontColor=#5C5C5C;rounded=1;" parent="1" vertex="1">
                    <mxGeometry x="535" y="-40" width="60" height="20" as="geometry"/>
                </mxCell>
                <mxCell id="26" value="yes" style="text;html=1;align=center;verticalAlign=middle;resizable=0;points=[];autosize=1;fontSize=16;fontColor=#5C5C5C;rounded=1;" parent="1" vertex="1">
                    <mxGeometry x="437" y="40" width="40" height="20" as="geometry"/>
                </mxCell>
                <mxCell id="27" value="&lt;font style=&quot;font-size: 16px;&quot;&gt;no&lt;/font&gt;" style="text;html=1;align=center;verticalAlign=middle;resizable=0;points=[];autosize=1;fontSize=16;fontColor=#5C5C5C;rounded=1;" parent="1" vertex="1">
                    <mxGeometry x="642" y="40" width="30" height="20" as="geometry"/>
                </mxCell>
                <mxCell id="28" value="&lt;font style=&quot;font-size: 16px&quot;&gt;new user?&lt;/font&gt;" style="text;html=1;align=center;verticalAlign=middle;resizable=0;points=[];autosize=1;fontSize=16;fontColor=#5C5C5C;rounded=1;" parent="1" vertex="1">
                    <mxGeometry x="1107" y="412" width="90" height="20" as="geometry"/>
                </mxCell>
                <mxCell id="29" value="&lt;font style=&quot;font-size: 16px;&quot;&gt;no&lt;/font&gt;" style="text;html=1;align=center;verticalAlign=middle;resizable=0;points=[];autosize=1;fontSize=16;fontColor=#5C5C5C;rounded=1;" parent="1" vertex="1">
                    <mxGeometry x="1165.5" y="472.5" width="30" height="20" as="geometry"/>
                </mxCell>
                <mxCell id="30" value="yes" style="text;html=1;align=center;verticalAlign=middle;resizable=0;points=[];autosize=1;fontSize=16;arcSize=50;fontColor=#5C5C5C;rounded=1;" parent="1" vertex="1">
                    <mxGeometry x="1236.5" y="472.5" width="40" height="20" as="geometry"/>
                </mxCell>
                <mxCell id="31" value="signed in?" style="text;html=1;align=center;verticalAlign=middle;resizable=0;points=[];autosize=1;fontSize=16;fontColor=#5C5C5C;rounded=1;" parent="1" vertex="1">
                    <mxGeometry x="940" y="542" width="90" height="20" as="geometry"/>
                </mxCell>
                <mxCell id="32" value="yes" style="text;html=1;align=center;verticalAlign=middle;resizable=0;points=[];autosize=1;fontSize=16;fontColor=#5C5C5C;rounded=1;" parent="1" vertex="1">
                    <mxGeometry x="1070" y="596" width="40" height="20" as="geometry"/>
                </mxCell>
                <mxCell id="33" value="&lt;font style=&quot;font-size: 16px;&quot;&gt;no&lt;/font&gt;" style="text;html=1;align=center;verticalAlign=middle;resizable=0;points=[];autosize=1;fontSize=16;fontColor=#5C5C5C;rounded=1;" parent="1" vertex="1">
                    <mxGeometry x="986" y="596" width="30" height="20" as="geometry"/>
                </mxCell>
                <mxCell id="34" style="edgeStyle=orthogonalEdgeStyle;orthogonalLoop=1;jettySize=auto;html=1;fontSize=14;exitX=0.5;exitY=1;exitDx=0;exitDy=0;strokeColor=#006658;fontColor=#5C5C5C;" parent="1" source="35" target="103" edge="1">
                    <mxGeometry relative="1" as="geometry">
                        <mxPoint x="910" y="1245.8333333333333" as="targetPoint"/>
                        <Array as="points">
                            <mxPoint x="920" y="276"/>
                            <mxPoint x="838" y="276"/>
                        </Array>
                    </mxGeometry>
                </mxCell>
                <mxCell id="35" value="" style="rhombus;whiteSpace=wrap;html=1;shadow=0;glass=0;fillColor=#21C0A5;strokeColor=#006658;fontColor=#5C5C5C;rounded=1;" parent="1" vertex="1">
                    <mxGeometry x="900" y="220" width="40" height="40" as="geometry"/>
                </mxCell>
                <mxCell id="36" value="invite clicked?" style="text;html=1;align=center;verticalAlign=middle;resizable=0;points=[];autosize=1;fontSize=16;fontColor=#5C5C5C;rounded=1;" parent="1" vertex="1">
                    <mxGeometry x="763" y="212" width="120" height="20" as="geometry"/>
                </mxCell>
                <mxCell id="37" value="yes" style="text;html=1;align=center;verticalAlign=middle;resizable=0;points=[];autosize=1;fontSize=16;fontColor=#5C5C5C;rounded=1;" parent="1" vertex="1">
                    <mxGeometry x="940" y="212" width="40" height="20" as="geometry"/>
                </mxCell>
                <mxCell id="38" value="&lt;font style=&quot;font-size: 16px&quot;&gt;else&lt;/font&gt;" style="text;html=1;align=center;verticalAlign=middle;resizable=0;points=[];autosize=1;fontSize=16;fontColor=#5C5C5C;rounded=1;" parent="1" vertex="1">
                    <mxGeometry x="926" y="289" width="39" height="23" as="geometry"/>
                </mxCell>
                <mxCell id="39" style="edgeStyle=elbowEdgeStyle;orthogonalLoop=1;jettySize=auto;html=1;entryX=0.5;entryY=0;entryDx=0;entryDy=0;fontSize=18;strokeColor=#006658;fontColor=#5C5C5C;" parent="1" source="40" target="49" edge="1">
                    <mxGeometry relative="1" as="geometry"/>
                </mxCell>
                <mxCell id="40" value="" style="rhombus;whiteSpace=wrap;html=1;shadow=0;glass=0;fillColor=#21C0A5;strokeColor=#006658;fontColor=#5C5C5C;rounded=1;" parent="1" vertex="1">
                    <mxGeometry x="402" y="260" width="40" height="40" as="geometry"/>
                </mxCell>
                <mxCell id="41" value="invite clicked?" style="text;html=1;align=center;verticalAlign=middle;resizable=0;points=[];autosize=1;fontSize=16;fontColor=#5C5C5C;rounded=1;" parent="1" vertex="1">
                    <mxGeometry x="296.5" y="220" width="120" height="20" as="geometry"/>
                </mxCell>
                <mxCell id="42" value="yes" style="text;html=1;align=center;verticalAlign=middle;resizable=0;points=[];autosize=1;fontSize=16;fontColor=#5C5C5C;rounded=1;" parent="1" vertex="1">
                    <mxGeometry x="450" y="250" width="40" height="20" as="geometry"/>
                </mxCell>
                <mxCell id="43" value="&lt;font style=&quot;font-size: 16px;&quot;&gt;no&lt;/font&gt;" style="text;html=1;align=center;verticalAlign=middle;resizable=0;points=[];autosize=1;fontSize=16;fontColor=#5C5C5C;rounded=1;" parent="1" vertex="1">
                    <mxGeometry x="362" y="250" width="30" height="20" as="geometry"/>
                </mxCell>
                <mxCell id="44" style="orthogonalLoop=1;jettySize=auto;html=1;entryX=0.5;entryY=0;entryDx=0;entryDy=0;fontSize=18;strokeColor=#006658;fontColor=#5C5C5C;" parent="1" target="23" edge="1">
                    <mxGeometry relative="1" as="geometry">
                        <mxPoint x="1220.565217391304" y="259.5652173913045" as="sourcePoint"/>
                    </mxGeometry>
                </mxCell>
                <mxCell id="45" style="edgeStyle=orthogonalEdgeStyle;orthogonalLoop=1;jettySize=auto;html=1;strokeColor=#006658;fontColor=#5C5C5C;" parent="1" source="46" edge="1">
                    <mxGeometry relative="1" as="geometry">
                        <mxPoint x="1192" y="780" as="targetPoint"/>
                        <mxPoint x="956" y="-214" as="sourcePoint"/>
                        <Array as="points">
                            <mxPoint x="936" y="-213"/>
                            <mxPoint x="1276" y="-213"/>
                            <mxPoint x="1276" y="754"/>
                            <mxPoint x="1192" y="754"/>
                        </Array>
                    </mxGeometry>
                </mxCell>
                <mxCell id="46" value="" style="line;strokeWidth=9;html=1;perimeter=backbonePerimeter;points=[];outlineConnect=0;shadow=0;glass=0;rotation=0;spacing=9;fontSize=18;fillColor=#21C0A5;strokeColor=#006658;fontColor=#5C5C5C;rounded=1;" parent="1" vertex="1">
                    <mxGeometry x="893" y="-244" width="87" height="10" as="geometry"/>
                </mxCell>
                <mxCell id="47" value="" style="edgeStyle=elbowEdgeStyle;orthogonalLoop=1;jettySize=auto;html=1;fontSize=18;strokeColor=#006658;fontColor=#5C5C5C;" parent="1" source="49" target="54" edge="1">
                    <mxGeometry relative="1" as="geometry">
                        <Array as="points">
                            <mxPoint x="558.5" y="550"/>
                        </Array>
                    </mxGeometry>
                </mxCell>
                <mxCell id="48" style="edgeStyle=elbowEdgeStyle;orthogonalLoop=1;jettySize=auto;html=1;fontSize=18;entryX=0.5;entryY=0;entryDx=0;entryDy=0;strokeColor=#006658;fontColor=#5C5C5C;" parent="1" source="49" target="59" edge="1">
                    <mxGeometry relative="1" as="geometry">
                        <mxPoint x="258.5" y="620" as="targetPoint"/>
                        <Array as="points">
                            <mxPoint x="259" y="500"/>
                            <mxPoint x="370" y="500"/>
                            <mxPoint x="259" y="510"/>
                            <mxPoint x="258.5" y="530"/>
                        </Array>
                    </mxGeometry>
                </mxCell>
                <mxCell id="49" value="" style="rhombus;whiteSpace=wrap;html=1;shadow=0;glass=0;fillColor=#21C0A5;strokeColor=#006658;fontColor=#5C5C5C;rounded=1;" parent="1" vertex="1">
                    <mxGeometry x="396.5" y="480" width="40" height="40" as="geometry"/>
                </mxCell>
                <mxCell id="50" value="&lt;font style=&quot;font-size: 16px&quot;&gt;new user?&lt;/font&gt;" style="text;html=1;align=center;verticalAlign=middle;resizable=0;points=[];autosize=1;fontSize=16;fontColor=#5C5C5C;rounded=1;" parent="1" vertex="1">
                    <mxGeometry x="318.5" y="400" width="90" height="20" as="geometry"/>
                </mxCell>
                <mxCell id="51" value="&lt;font style=&quot;font-size: 16px;&quot;&gt;no&lt;/font&gt;" style="text;html=1;align=center;verticalAlign=middle;resizable=0;points=[];autosize=1;fontSize=16;fontColor=#5C5C5C;rounded=1;" parent="1" vertex="1">
                    <mxGeometry x="350" y="460" width="30" height="20" as="geometry"/>
                </mxCell>
                <mxCell id="52" value="yes" style="text;html=1;align=center;verticalAlign=middle;resizable=0;points=[];autosize=1;fontSize=16;fontColor=#5C5C5C;rounded=1;" parent="1" vertex="1">
                    <mxGeometry x="436.5" y="460" width="40" height="20" as="geometry"/>
                </mxCell>
                <mxCell id="53" style="edgeStyle=orthogonalEdgeStyle;orthogonalLoop=1;jettySize=auto;html=1;entryX=1;entryY=0.5;entryDx=0;entryDy=0;strokeColor=#006658;fontColor=#5C5C5C;" parent="1" source="54" target="66" edge="1">
                    <mxGeometry relative="1" as="geometry">
                        <Array as="points">
                            <mxPoint x="560" y="710"/>
                        </Array>
                    </mxGeometry>
                </mxCell>
                <mxCell id="54" value="&lt;font style=&quot;font-size: 14px&quot; color=&quot;#ffffff&quot;&gt;sign up&lt;/font&gt;" style="whiteSpace=wrap;html=1;shadow=0;glass=0;fillColor=#21C0A5;strokeColor=#006658;fontColor=#5C5C5C;rounded=1;" parent="1" vertex="1">
                    <mxGeometry x="480.5" y="580" width="120" height="60" as="geometry"/>
                </mxCell>
                <mxCell id="55" style="edgeStyle=orthogonalEdgeStyle;orthogonalLoop=1;jettySize=auto;html=1;strokeColor=#006658;fontColor=#5C5C5C;" parent="1" source="56" target="103" edge="1">
                    <mxGeometry relative="1" as="geometry">
                        <mxPoint x="802.5" y="1220" as="targetPoint"/>
                        <Array as="points">
                            <mxPoint x="805" y="1025"/>
                        </Array>
                    </mxGeometry>
                </mxCell>
                <mxCell id="56" value="&lt;font style=&quot;font-size: 14px&quot; color=&quot;#ffffff&quot;&gt;open chat&lt;/font&gt;" style="whiteSpace=wrap;html=1;shadow=0;glass=0;fillColor=#21C0A5;strokeColor=#006658;fontColor=#5C5C5C;rounded=1;" parent="1" vertex="1">
                    <mxGeometry x="302" y="995" width="120" height="60" as="geometry"/>
                </mxCell>
                <mxCell id="57" style="edgeStyle=elbowEdgeStyle;orthogonalLoop=1;jettySize=auto;html=1;entryX=0.5;entryY=0;entryDx=0;entryDy=0;fontSize=18;strokeColor=#006658;fontColor=#5C5C5C;" parent="1" source="59" target="66" edge="1">
                    <mxGeometry relative="1" as="geometry">
                        <mxPoint x="280" y="630" as="sourcePoint"/>
                        <Array as="points">
                            <mxPoint x="364" y="660"/>
                            <mxPoint x="360" y="640"/>
                            <mxPoint x="364" y="650"/>
                            <mxPoint x="350" y="650"/>
                            <mxPoint x="321" y="660"/>
                        </Array>
                    </mxGeometry>
                </mxCell>
                <mxCell id="58" style="edgeStyle=orthogonalEdgeStyle;orthogonalLoop=1;jettySize=auto;html=1;strokeColor=#006658;fontColor=#5C5C5C;" parent="1" source="59" target="64" edge="1">
                    <mxGeometry relative="1" as="geometry">
                        <mxPoint x="180" y="680" as="targetPoint"/>
                        <Array as="points">
                            <mxPoint x="194" y="630"/>
                        </Array>
                    </mxGeometry>
                </mxCell>
                <mxCell id="59" value="" style="rhombus;whiteSpace=wrap;html=1;shadow=0;glass=0;fillColor=#21C0A5;strokeColor=#006658;fontColor=#5C5C5C;rounded=1;" parent="1" vertex="1">
                    <mxGeometry x="238.5" y="610" width="40" height="40" as="geometry"/>
                </mxCell>
                <mxCell id="60" value="yes" style="text;html=1;align=center;verticalAlign=middle;resizable=0;points=[];autosize=1;fontSize=16;fontColor=#5C5C5C;rounded=1;" parent="1" vertex="1">
                    <mxGeometry x="278.5" y="600" width="40" height="20" as="geometry"/>
                </mxCell>
                <mxCell id="61" value="&lt;font style=&quot;font-size: 16px;&quot;&gt;no&lt;/font&gt;" style="text;html=1;align=center;verticalAlign=middle;resizable=0;points=[];autosize=1;fontSize=16;fontColor=#5C5C5C;rounded=1;" parent="1" vertex="1">
                    <mxGeometry x="193.5" y="600" width="30" height="20" as="geometry"/>
                </mxCell>
                <mxCell id="62" value="signed in?" style="text;html=1;align=center;verticalAlign=middle;resizable=0;points=[];autosize=1;fontSize=16;fontColor=#5C5C5C;rounded=1;" parent="1" vertex="1">
                    <mxGeometry x="163.5" y="550" width="90" height="20" as="geometry"/>
                </mxCell>
                <mxCell id="63" style="edgeStyle=orthogonalEdgeStyle;orthogonalLoop=1;jettySize=auto;html=1;entryX=0;entryY=0.5;entryDx=0;entryDy=0;strokeColor=#006658;fontColor=#5C5C5C;" parent="1" source="64" target="66" edge="1">
                    <mxGeometry relative="1" as="geometry"/>
                </mxCell>
                <mxCell id="64" value="&lt;font style=&quot;font-size: 14px&quot; color=&quot;#ffffff&quot;&gt;sign in&lt;/font&gt;" style="whiteSpace=wrap;html=1;shadow=0;glass=0;fillColor=#21C0A5;strokeColor=#006658;fontColor=#5C5C5C;rounded=1;" parent="1" vertex="1">
                    <mxGeometry x="133.5" y="680" width="120" height="60" as="geometry"/>
                </mxCell>
                <mxCell id="65" style="edgeStyle=orthogonalEdgeStyle;orthogonalLoop=1;jettySize=auto;html=1;strokeColor=#006658;fontColor=#5C5C5C;" parent="1" source="66" target="95" edge="1">
                    <mxGeometry relative="1" as="geometry"/>
                </mxCell>
                <mxCell id="66" value="" style="rhombus;whiteSpace=wrap;html=1;shadow=0;glass=0;fillColor=#21C0A5;strokeColor=#006658;fontColor=#5C5C5C;rounded=1;" parent="1" vertex="1">
                    <mxGeometry x="343.5" y="690" width="40" height="40" as="geometry"/>
                </mxCell>
                <mxCell id="67" style="edgeStyle=elbowEdgeStyle;orthogonalLoop=1;jettySize=auto;elbow=vertical;html=1;strokeColor=#006658;fontColor=#5C5C5C;" parent="1" source="68" target="103" edge="1">
                    <mxGeometry relative="1" as="geometry">
                        <mxPoint x="1008" y="1233" as="targetPoint"/>
                        <Array as="points">
                            <mxPoint x="1036" y="1168"/>
                            <mxPoint x="1216" y="1168"/>
                            <mxPoint x="1060" y="1180"/>
                            <mxPoint x="1351" y="1156"/>
                            <mxPoint x="1027" y="1178"/>
                            <mxPoint x="1118" y="1106"/>
                            <mxPoint x="1226" y="1148"/>
                        </Array>
                    </mxGeometry>
                </mxCell>
                <mxCell id="68" value="&lt;font color=&quot;#ffffff&quot;&gt;sign up&amp;amp; report doc loss&lt;/font&gt;" style="whiteSpace=wrap;html=1;shadow=0;glass=0;fontSize=14;fillColor=#21C0A5;strokeColor=#006658;fontColor=#5C5C5C;rounded=1;" parent="1" vertex="1">
                    <mxGeometry x="1427" y="634.25" width="120" height="60" as="geometry"/>
                </mxCell>
                <mxCell id="69" style="orthogonalLoop=1;jettySize=auto;html=1;exitX=0.947;exitY=0.475;exitDx=0;exitDy=0;exitPerimeter=0;edgeStyle=elbowEdgeStyle;elbow=vertical;strokeColor=#006658;fontColor=#5C5C5C;" parent="1" source="23" target="84" edge="1">
                    <mxGeometry relative="1" as="geometry">
                        <mxPoint x="1233.8799999999997" y="490.00000000000045" as="sourcePoint"/>
                        <mxPoint x="1240" y="568" as="targetPoint"/>
                        <Array as="points">
                            <mxPoint x="1297" y="507"/>
                        </Array>
                    </mxGeometry>
                </mxCell>
                <mxCell id="70" style="edgeStyle=elbowEdgeStyle;orthogonalLoop=1;jettySize=auto;html=1;entryX=0.5;entryY=0;entryDx=0;entryDy=0;strokeColor=#006658;fontColor=#5C5C5C;" parent="1" source="72" target="78" edge="1">
                    <mxGeometry relative="1" as="geometry">
                        <Array as="points">
                            <mxPoint x="1167" y="660"/>
                        </Array>
                    </mxGeometry>
                </mxCell>
                <mxCell id="71" style="edgeStyle=elbowEdgeStyle;orthogonalLoop=1;jettySize=auto;html=1;entryX=0.5;entryY=0;entryDx=0;entryDy=0;strokeColor=#006658;fontColor=#5C5C5C;" parent="1" source="72" target="76" edge="1">
                    <mxGeometry relative="1" as="geometry">
                        <Array as="points">
                            <mxPoint x="916" y="654"/>
                        </Array>
                    </mxGeometry>
                </mxCell>
                <mxCell id="72" value="" style="rhombus;whiteSpace=wrap;html=1;shadow=0;glass=0;fillColor=#21C0A5;strokeColor=#006658;fontColor=#5C5C5C;rounded=1;" parent="1" vertex="1">
                    <mxGeometry x="1028" y="610" width="40" height="40" as="geometry"/>
                </mxCell>
                <mxCell id="73" style="edgeStyle=elbowEdgeStyle;orthogonalLoop=1;jettySize=auto;elbow=vertical;html=1;strokeColor=#006658;fontColor=#5C5C5C;" parent="1" source="74" target="103" edge="1">
                    <mxGeometry relative="1" as="geometry"/>
                </mxCell>
                <mxCell id="74" value="&lt;font color=&quot;#ffffff&quot;&gt;report doc loss&lt;/font&gt;" style="whiteSpace=wrap;html=1;shadow=0;glass=0;fontSize=14;fillColor=#21C0A5;strokeColor=#006658;fontColor=#5C5C5C;rounded=1;" parent="1" vertex="1">
                    <mxGeometry x="1107" y="831" width="120" height="60" as="geometry"/>
                </mxCell>
                <mxCell id="75" style="edgeStyle=elbowEdgeStyle;orthogonalLoop=1;jettySize=auto;html=1;entryX=0;entryY=0.5;entryDx=0;entryDy=0;strokeColor=#006658;fontColor=#5C5C5C;" parent="1" source="76" target="78" edge="1">
                    <mxGeometry relative="1" as="geometry">
                        <Array as="points">
                            <mxPoint x="1072" y="710"/>
                            <mxPoint x="1116" y="700"/>
                        </Array>
                    </mxGeometry>
                </mxCell>
                <mxCell id="76" value="&lt;font color=&quot;#ffffff&quot;&gt;sign in&lt;/font&gt;" style="whiteSpace=wrap;html=1;shadow=0;glass=0;fontSize=14;fillColor=#21C0A5;strokeColor=#006658;fontColor=#5C5C5C;rounded=1;" parent="1" vertex="1">
                    <mxGeometry x="862" y="682" width="120" height="60" as="geometry"/>
                </mxCell>
                <mxCell id="77" style="edgeStyle=elbowEdgeStyle;orthogonalLoop=1;jettySize=auto;html=1;strokeColor=#006658;fontColor=#5C5C5C;" parent="1" source="78" edge="1">
                    <mxGeometry relative="1" as="geometry">
                        <mxPoint x="1167" y="783" as="targetPoint"/>
                    </mxGeometry>
                </mxCell>
                <mxCell id="78" value="" style="rhombus;whiteSpace=wrap;html=1;shadow=0;glass=0;fillColor=#21C0A5;strokeColor=#006658;fontColor=#5C5C5C;rounded=1;" parent="1" vertex="1">
                    <mxGeometry x="1147" y="690" width="40" height="40" as="geometry"/>
                </mxCell>
                <mxCell id="79" value="" style="edgeStyle=elbowEdgeStyle;orthogonalLoop=1;jettySize=auto;html=1;strokeColor=#006658;fontColor=#5C5C5C;" parent="1" source="104" target="93" edge="1">
                    <mxGeometry relative="1" as="geometry"/>
                </mxCell>
                <mxCell id="80" value="&lt;font color=&quot;#ffffff&quot;&gt;sign up &amp;amp; report Found doc&lt;/font&gt;" style="whiteSpace=wrap;html=1;shadow=0;glass=0;fontSize=14;fillColor=#21C0A5;strokeColor=#006658;fontColor=#5C5C5C;rounded=1;" parent="1" vertex="1">
                    <mxGeometry x="1581" y="634.25" width="120" height="60" as="geometry"/>
                </mxCell>
                <mxCell id="81" style="edgeStyle=elbowEdgeStyle;orthogonalLoop=1;jettySize=auto;html=1;entryX=0.5;entryY=0;entryDx=0;entryDy=0;strokeColor=#006658;fontColor=#5C5C5C;" parent="1" source="84" target="68" edge="1">
                    <mxGeometry relative="1" as="geometry">
                        <Array as="points">
                            <mxPoint x="1481" y="590.25"/>
                        </Array>
                    </mxGeometry>
                </mxCell>
                <mxCell id="82" style="edgeStyle=elbowEdgeStyle;orthogonalLoop=1;jettySize=auto;html=1;entryX=0.617;entryY=-0.1;entryDx=0;entryDy=0;entryPerimeter=0;strokeColor=#006658;fontColor=#5C5C5C;" parent="1" source="84" target="80" edge="1">
                    <mxGeometry relative="1" as="geometry">
                        <Array as="points">
                            <mxPoint x="1655" y="582.25"/>
                        </Array>
                    </mxGeometry>
                </mxCell>
                <mxCell id="83" style="edgeStyle=elbowEdgeStyle;orthogonalLoop=1;jettySize=auto;html=1;strokeColor=#006658;fontColor=#5C5C5C;" parent="1" source="84" target="89" edge="1">
                    <mxGeometry relative="1" as="geometry">
                        <Array as="points">
                            <mxPoint x="1795" y="592.25"/>
                        </Array>
                    </mxGeometry>
                </mxCell>
                <mxCell id="84" value="" style="line;strokeWidth=9;html=1;perimeter=backbonePerimeter;points=[];outlineConnect=0;shadow=0;glass=0;rotation=0;spacing=9;fontSize=18;fillColor=#21C0A5;strokeColor=#006658;fontColor=#5C5C5C;rounded=1;" parent="1" vertex="1">
                    <mxGeometry x="1610" y="521.75" width="87" height="10" as="geometry"/>
                </mxCell>
                <mxCell id="85" value="" style="line;strokeWidth=9;html=1;perimeter=backbonePerimeter;points=[];outlineConnect=0;shadow=0;glass=0;rotation=0;spacing=9;fontSize=18;fillColor=#21C0A5;strokeColor=#006658;fontColor=#5C5C5C;rounded=1;" parent="1" vertex="1">
                    <mxGeometry x="1177" y="255" width="87" height="10" as="geometry"/>
                </mxCell>
                <mxCell id="86" style="edgeStyle=elbowEdgeStyle;orthogonalLoop=1;jettySize=auto;html=1;entryX=0.5;entryY=0;entryDx=0;entryDy=0;strokeColor=#006658;fontColor=#5C5C5C;" parent="1" source="87" target="8" edge="1">
                    <mxGeometry relative="1" as="geometry"/>
                </mxCell>
                <mxCell id="87" value="" style="line;strokeWidth=9;html=1;perimeter=backbonePerimeter;points=[];outlineConnect=0;shadow=0;glass=0;rotation=0;spacing=9;fontSize=18;direction=west;fillColor=#21C0A5;strokeColor=#006658;fontColor=#5C5C5C;rounded=1;" parent="1" vertex="1">
                    <mxGeometry x="496.5" y="-177" width="87" height="30" as="geometry"/>
                </mxCell>
                <mxCell id="88" style="edgeStyle=elbowEdgeStyle;orthogonalLoop=1;jettySize=auto;elbow=vertical;html=1;strokeColor=#006658;fontColor=#5C5C5C;" parent="1" source="89" target="103" edge="1">
                    <mxGeometry relative="1" as="geometry">
                        <Array as="points">
                            <mxPoint x="1080" y="1188"/>
                            <mxPoint x="1038" y="1115"/>
                            <mxPoint x="995" y="1208"/>
                            <mxPoint x="1248" y="1190"/>
                            <mxPoint x="1046" y="1190"/>
                            <mxPoint x="1250" y="1160"/>
                        </Array>
                    </mxGeometry>
                </mxCell>
                <mxCell id="89" value="&lt;font color=&quot;#ffffff&quot;&gt;explore found docs&lt;/font&gt;" style="whiteSpace=wrap;html=1;shadow=0;glass=0;fontSize=14;fillColor=#21C0A5;strokeColor=#006658;fontColor=#5C5C5C;rounded=1;" parent="1" vertex="1">
                    <mxGeometry x="1735" y="638.25" width="120" height="60" as="geometry"/>
                </mxCell>
                <mxCell id="90" style="edgeStyle=elbowEdgeStyle;orthogonalLoop=1;jettySize=auto;html=1;strokeColor=#006658;fontColor=#5C5C5C;" parent="1" source="91" target="74" edge="1">
                    <mxGeometry relative="1" as="geometry"/>
                </mxCell>
                <mxCell id="91" value="" style="line;strokeWidth=9;html=1;perimeter=backbonePerimeter;points=[];outlineConnect=0;shadow=0;glass=0;rotation=0;spacing=9;fontSize=18;fillColor=#21C0A5;strokeColor=#006658;fontColor=#5C5C5C;rounded=1;" parent="1" vertex="1">
                    <mxGeometry x="1128" y="782" width="87" height="10" as="geometry"/>
                </mxCell>
                <mxCell id="92" style="edgeStyle=elbowEdgeStyle;orthogonalLoop=1;jettySize=auto;html=1;exitX=0;exitY=0.5;exitDx=0;exitDy=0;strokeColor=#006658;fontColor=#5C5C5C;" parent="1" source="97" target="95" edge="1">
                    <mxGeometry relative="1" as="geometry">
                        <mxPoint x="394" y="874" as="targetPoint"/>
                        <mxPoint x="1363" y="922" as="sourcePoint"/>
                        <Array as="points">
                            <mxPoint x="387" y="914"/>
                        </Array>
                    </mxGeometry>
                </mxCell>
                <mxCell id="93" value="&lt;font color=&quot;#f8f7ff&quot;&gt;send finder infos and a chat link to owner via email and sms&lt;/font&gt;" style="whiteSpace=wrap;html=1;shadow=0;fontSize=14;glass=0;fillColor=#21C0A5;strokeColor=#006658;fontColor=#5C5C5C;rounded=1;" parent="1" vertex="1">
                    <mxGeometry x="1593.5" y="877" width="120" height="60" as="geometry"/>
                </mxCell>
                <mxCell id="94" style="edgeStyle=elbowEdgeStyle;orthogonalLoop=1;jettySize=auto;html=1;strokeColor=#006658;fontColor=#5C5C5C;" parent="1" source="95" target="56" edge="1">
                    <mxGeometry relative="1" as="geometry"/>
                </mxCell>
                <mxCell id="95" value="" style="line;strokeWidth=9;html=1;perimeter=backbonePerimeter;points=[];outlineConnect=0;shadow=0;glass=0;rotation=0;spacing=9;fontSize=18;fillColor=#21C0A5;strokeColor=#006658;fontColor=#5C5C5C;rounded=1;" parent="1" vertex="1">
                    <mxGeometry x="318.5" y="937" width="87" height="10" as="geometry"/>
                </mxCell>
                <mxCell id="96" style="edgeStyle=elbowEdgeStyle;orthogonalLoop=1;jettySize=auto;html=1;exitX=0.5;exitY=1;exitDx=0;exitDy=0;entryX=0.64;entryY=0.3;entryDx=0;entryDy=0;entryPerimeter=0;elbow=vertical;strokeColor=#006658;fontColor=#5C5C5C;" parent="1" source="108" target="103" edge="1">
                    <mxGeometry relative="1" as="geometry">
                        <mxPoint x="973" y="1218" as="targetPoint"/>
                    </mxGeometry>
                </mxCell>
                <mxCell id="97" value="" style="rhombus;whiteSpace=wrap;html=1;shadow=0;glass=0;fillColor=#21C0A5;strokeColor=#006658;fontColor=#5C5C5C;rounded=1;" parent="1" vertex="1">
                    <mxGeometry x="1365" y="902" width="40" height="40" as="geometry"/>
                </mxCell>
                <mxCell id="98" style="edgeStyle=elbowEdgeStyle;orthogonalLoop=1;jettySize=auto;html=1;exitX=0;exitY=0.75;exitDx=0;exitDy=0;strokeColor=#006658;fontColor=#5C5C5C;" parent="1" source="93" target="97" edge="1">
                    <mxGeometry relative="1" as="geometry">
                        <mxPoint x="387" y="937.5" as="targetPoint"/>
                        <mxPoint x="1593.5" y="922" as="sourcePoint"/>
                        <Array as="points"/>
                    </mxGeometry>
                </mxCell>
                <mxCell id="99" value="link clicked?" style="text;html=1;align=center;verticalAlign=middle;resizable=0;points=[];autosize=1;fontSize=16;fontColor=#5C5C5C;rounded=1;" parent="1" vertex="1">
                    <mxGeometry x="1493" y="935" width="96" height="23" as="geometry"/>
                </mxCell>
                <mxCell id="100" value="yes" style="text;html=1;align=center;verticalAlign=middle;resizable=0;points=[];autosize=1;fontSize=16;fontColor=#5C5C5C;rounded=1;" parent="1" vertex="1">
                    <mxGeometry x="1316" y="888" width="40" height="20" as="geometry"/>
                </mxCell>
                <mxCell id="101" value="else" style="text;html=1;align=center;verticalAlign=middle;resizable=0;points=[];autosize=1;fontSize=16;fontColor=#5C5C5C;rounded=1;" parent="1" vertex="1">
                    <mxGeometry x="1393" y="972" width="39" height="23" as="geometry"/>
                </mxCell>
                <mxCell id="102" style="edgeStyle=orthogonalEdgeStyle;orthogonalLoop=1;jettySize=auto;html=1;entryX=0.5;entryY=0;entryDx=0;entryDy=0;strokeColor=#006658;fontColor=#5C5C5C;" parent="1" source="103" target="3" edge="1">
                    <mxGeometry relative="1" as="geometry"/>
                </mxCell>
                <mxCell id="103" value="" style="line;strokeWidth=9;html=1;perimeter=backbonePerimeter;points=[];outlineConnect=0;shadow=0;glass=0;rotation=0;spacing=9;fontSize=18;fillColor=#21C0A5;strokeColor=#006658;fontColor=#5C5C5C;rounded=1;" parent="1" vertex="1">
                    <mxGeometry x="769" y="1238" width="334" height="10" as="geometry"/>
                </mxCell>
                <mxCell id="110" style="edgeStyle=orthogonalEdgeStyle;orthogonalLoop=1;jettySize=auto;html=1;entryX=1;entryY=0.5;entryDx=0;entryDy=0;strokeColor=#006658;" edge="1" parent="1" source="104" target="108">
                    <mxGeometry relative="1" as="geometry">
                        <mxPoint x="1750" y="1040" as="targetPoint"/>
                        <Array as="points">
                            <mxPoint x="1750" y="802"/>
                            <mxPoint x="1750" y="1035"/>
                        </Array>
                    </mxGeometry>
                </mxCell>
                <mxCell id="104" value="" style="rhombus;whiteSpace=wrap;html=1;shadow=0;glass=0;fillColor=#21C0A5;strokeColor=#006658;fontColor=#5C5C5C;rounded=1;" vertex="1" parent="1">
                    <mxGeometry x="1621" y="782" width="40" height="40" as="geometry"/>
                </mxCell>
                <mxCell id="105" value="" style="edgeStyle=elbowEdgeStyle;orthogonalLoop=1;jettySize=auto;html=1;strokeColor=#006658;fontColor=#5C5C5C;" edge="1" parent="1" source="80" target="104">
                    <mxGeometry relative="1" as="geometry">
                        <mxPoint x="1647" y="694.25" as="sourcePoint"/>
                        <mxPoint x="1647" y="877" as="targetPoint"/>
                    </mxGeometry>
                </mxCell>
                <mxCell id="106" value="owner registered?" style="text;html=1;align=center;verticalAlign=middle;resizable=0;points=[];autosize=1;fontSize=16;fontColor=#5C5C5C;rounded=1;" vertex="1" parent="1">
                    <mxGeometry x="1640" y="742" width="140" height="20" as="geometry"/>
                </mxCell>
                <mxCell id="107" value="yes" style="text;html=1;align=center;verticalAlign=middle;resizable=0;points=[];autosize=1;fontSize=16;fontColor=#5C5C5C;rounded=1;" vertex="1" parent="1">
                    <mxGeometry x="1593.5" y="831" width="40" height="20" as="geometry"/>
                </mxCell>
                <mxCell id="108" value="" style="rhombus;whiteSpace=wrap;html=1;shadow=0;glass=0;fillColor=#21C0A5;strokeColor=#006658;fontColor=#5C5C5C;rounded=1;" vertex="1" parent="1">
                    <mxGeometry x="1365" y="1015" width="40" height="40" as="geometry"/>
                </mxCell>
                <mxCell id="109" style="edgeStyle=elbowEdgeStyle;orthogonalLoop=1;jettySize=auto;html=1;exitX=0.5;exitY=1;exitDx=0;exitDy=0;elbow=vertical;strokeColor=#006658;fontColor=#5C5C5C;" edge="1" parent="1" source="97" target="108">
                    <mxGeometry relative="1" as="geometry">
                        <mxPoint x="982.7600000000002" y="1241" as="targetPoint"/>
                        <mxPoint x="1385" y="942" as="sourcePoint"/>
                    </mxGeometry>
                </mxCell>
            </root>
        </mxGraphModel>
    </diagram>
</mxfile>